<svg preserveAspectRatio="none" width="100%" height="100%" overflow="visible" style="display: block;" viewBox="0 0 28 28.2029" fill="none" xmlns="http://www.w3.org/2000/svg">
<g id="24_icon-fill/backpack" clip-path="url(#clip0_0_12)">
<rect id="Rectangle 456747304" x="16.3333" y="1.16682" width="5.83333" height="12.8333" rx="1.75" fill="var(--fill-0, #7F7E70)"/>
<rect id="Rectangle 456747305" x="5.83333" y="1.16682" width="5.83333" height="12.8333" rx="1.75" fill="var(--fill-0, #7F7E70)"/>
<path id="Rectangle 456747303" d="M13.9997 4.8999C19.6697 4.8999 24.2661 9.49652 24.2663 15.1665V19.8335C24.2663 20.9079 24.2675 21.7607 24.2204 22.4507C24.1727 23.1489 24.073 23.7486 23.8405 24.3101C23.2721 25.6821 22.1814 26.772 20.8092 27.3403C20.2479 27.5728 19.6481 27.6726 18.9499 27.7202C18.2601 27.7673 17.4077 27.7671 16.3337 27.7671H11.6667C10.5922 27.7671 9.73941 27.7673 9.04948 27.7202C8.35127 27.6726 7.75151 27.5729 7.1901 27.3403C5.81815 26.772 4.72819 25.682 4.15983 24.3101C3.92729 23.7486 3.8276 23.1489 3.77995 22.4507C3.73287 21.7607 3.73307 20.9079 3.73307 19.8335V15.1665C3.73325 9.49663 8.32981 4.90007 13.9997 4.8999Z" fill="var(--fill-0, #7F7E70)" stroke="var(--stroke-0, #575744)" stroke-width="1.86667"/>
<path id="Rectangle 456747306" d="M9.33333 18.0835C9.33333 17.7613 9.5945 17.5002 9.91667 17.5002H18.0833C18.4055 17.5002 18.6667 17.7613 18.6667 18.0835V19.8335C18.6667 21.1222 17.622 22.1668 16.3333 22.1668H11.6667C10.378 22.1668 9.33333 21.1222 9.33333 19.8335V18.0835Z" fill="var(--fill-0, #595844)"/>
</g>
<defs>
<clipPath id="clip0_0_12">
<rect width="28" height="28.2029" fill="white"/>
</clipPath>
</defs>
</svg>
