<svg xmlns="http://www.w3.org/2000/svg" width="36" height="30" viewBox="0 0 36 30">
  <path fill="#676767" d="M2.390625 23.4375C2.390625 25.0078125 3.4921875 26.28515625 5.35546875 26.28515625H29.7421875C31.60546875 26.28515625 32.70703125 25.0078125 32.70703125 23.4375C32.70703125 22.30078125 32.109375 21.19921875 30.890625 20.51953125L18.87890625 13.76953125V13.3359375C18.87890625 12.41015625 19.32421875 11.94140625 20.26171875 11.16796875C21.59765625 10.078125 22.8984375 8.75390625 22.8984375 6.6328125C22.8984375 3.57421875 20.77734375 1.53515625 17.578125 1.53515625C14.40234375 1.53515625 12.29296875 3.6328125 12.29296875 6.7734375C12.29296875 7.65234375 12.83203125 8.21484375 13.59375 8.21484375C14.34375 8.21484375 14.84765625 7.6875 14.89453125 6.97265625C14.953125 5.28515625 16.01953125 4.16015625 17.578125 4.16015625C19.21875 4.16015625 20.30859375 5.1328125 20.30859375 6.609375C20.30859375 7.72265625 19.67578125 8.42578125 18.87890625 9.05859375C17.87109375 9.87890625 16.21875 10.83984375 16.21875 13.171875V13.76953125L4.20703125 20.51953125C2.98828125 21.19921875 2.390625 22.30078125 2.390625 23.4375ZM5.578125 23.15625C5.578125 22.95703125 5.671875 22.79296875 5.91796875 22.65234375L17.5546875 16.125L29.1796875 22.65234375C29.42578125 22.79296875 29.51953125 22.95703125 29.51953125 23.15625C29.51953125 23.37890625 29.3671875 23.56640625 29.05078125 23.56640625H6.046875C5.73046875 23.56640625 5.578125 23.37890625 5.578125 23.15625Z"/>
</svg>
