<svg preserveAspectRatio="none" width="100%" height="100%" overflow="visible" style="display: block;" viewBox="0 0 28 28.2029" fill="none" xmlns="http://www.w3.org/2000/svg">
<g id="24_icon-fill/bell" opacity="0.3">
<path id="&#244;&#128;&#184;&#169;" d="M10.0583 26.7986C9.04143 26.7986 8.38774 26.2072 8.4085 25.2526L8.62639 13.7352C8.63677 13.123 8.53301 12.9674 8.12834 12.7703C6.62383 12.0543 5.89751 11.2865 6.01164 9.08679L6.32292 3.13098C6.35405 2.54993 6.69646 2.18677 7.22563 2.18677C7.76518 2.18677 8.07646 2.5603 8.06609 3.16211L7.9727 8.88965C7.96233 9.30469 8.16985 9.53296 8.51225 9.53296C8.85466 9.53296 9.06218 9.30469 9.07256 8.92078L9.18669 2.94421C9.19707 2.38391 9.5291 2 10.0583 2C10.5875 2 10.9195 2.38391 10.9299 2.94421L11.044 8.92078C11.0544 9.31506 11.2411 9.53296 11.6043 9.53296C11.9363 9.53296 12.1438 9.30469 12.1335 8.88965L12.0505 3.16211C12.0401 2.5603 12.3514 2.18677 12.8805 2.18677C13.4201 2.18677 13.7417 2.53955 13.7833 3.13098L14.0842 9.08679C14.2087 11.2865 13.4927 12.0543 11.9778 12.7703C11.5732 12.9674 11.4798 13.123 11.4902 13.7352L11.6977 25.2526C11.7081 26.1968 11.0855 26.7986 10.0583 26.7986ZM18.3591 17.6055C18.3798 17.1178 18.2553 16.8999 17.861 16.6301L17.5705 16.4434C16.813 15.9246 16.5951 15.468 16.5951 14.6587V13.9635C16.5951 10.0829 17.9233 5.05054 19.6042 2.72632C19.9673 2.22827 20.2579 2 20.6729 2C21.1813 2 21.5134 2.35278 21.5134 2.88196V25.2629C21.5134 26.2072 20.9115 26.7986 19.8739 26.7986C18.8571 26.7986 18.2138 26.2072 18.2242 25.2422L18.3591 17.6055Z" fill="var(--fill-0, white)"/>
</g>
</svg>
