<svg width="96" height="96" viewBox="0 0 96 96" fill="none" xmlns="http://www.w3.org/2000/svg">
  <path d="M19 51C20.5 71 31.5 82 48 82C64.5 82 75.5 71 77 51H19Z" fill="#F2F0E8"/>
  <path d="M22 56C25 71 34 78 48 78C62 78 71 71 74 56H22Z" fill="#D8D3C6"/>
  <ellipse cx="48" cy="50" rx="31" ry="9" fill="#FFF8EA"/>
  <circle cx="34" cy="44" r="10" fill="#D9456A"/>
  <circle cx="50" cy="40" r="11" fill="#C7375E"/>
  <circle cx="62" cy="47" r="9" fill="#E55375"/>
  <circle cx="43" cy="52" r="8" fill="#A92E55"/>
  <path d="M50 28C55 29.5 58.5 32 61.5 36.5" stroke="#65B96D" stroke-width="5" stroke-linecap="round"/>
  <path d="M57 30C63 28.5 67 29.5 70 33C65 36 61 35.5 57 30Z" fill="#79D27A"/>
</svg>
