<svg width="96" height="96" viewBox="0 0 96 96" fill="none" xmlns="http://www.w3.org/2000/svg">
  <path d="M20 66C22 38 39 20 72 19C75 51 58 73 26 78C24 75 22 71 20 66Z" fill="#7DD96F"/>
  <path d="M25 72C38 56 51 43 71 24" stroke="#2E7E42" stroke-width="6" stroke-linecap="round"/>
  <path d="M38 59C37 50 35 43 30 37" stroke="#4AAE54" stroke-width="5" stroke-linecap="round"/>
  <path d="M50 47C50 38 47 31 42 26" stroke="#4AAE54" stroke-width="5" stroke-linecap="round"/>
  <path d="M48 49C58 51 65 51 72 47" stroke="#4AAE54" stroke-width="5" stroke-linecap="round"/>
  <path d="M37 61C45 65 53 67 62 65" stroke="#4AAE54" stroke-width="5" stroke-linecap="round"/>
  <path d="M20 66C19 74 22 80 29 83" stroke="#E7D36E" stroke-width="6" stroke-linecap="round"/>
</svg>
