<svg preserveAspectRatio="none" width="100%" height="100%" overflow="visible" style="display: block;" viewBox="0 0 54 54" fill="none" xmlns="http://www.w3.org/2000/svg">
<g id="Frame 2136139697">
<path id="Ellipse 203196393" d="M5.97785 38.7178C4.56313 39.5064 2.76075 39.0034 2.13019 37.5116C0.691346 34.1073 -0.0374244 30.4338 0.00147961 26.7174C0.0506478 22.0205 1.3243 17.4176 3.69663 13.3635C6.06896 9.30946 9.45788 5.94442 13.5286 3.60081C16.7496 1.74645 20.3092 0.582335 23.9819 0.169207C25.5914 -0.0118411 26.9127 1.31314 26.9182 2.93278V2.93278C26.9237 4.55242 25.6089 5.849 24.0056 6.07848C21.3548 6.45788 18.7911 7.33895 16.4551 8.68388C13.2686 10.5184 10.6159 13.1524 8.75889 16.3258C6.90191 19.4992 5.90493 23.1022 5.86644 26.7788C5.83823 29.4742 6.3259 32.1408 7.29359 34.6377C7.8789 36.1479 7.39257 37.9292 5.97785 38.7178V38.7178Z" fill="var(--fill-0, #FFCD4F)"/>
<path id="Ellipse 203196394" opacity="0.3" d="M54 27C54 41.9117 41.9117 54 27 54C12.0883 54 3.67058e-07 41.9117 3.67058e-07 27C3.67058e-07 12.0883 12.0883 0 27 0C41.9117 0 54 12.0883 54 27ZM5.659 27C5.659 38.7863 15.2137 48.341 27 48.341C38.7863 48.341 48.341 38.7863 48.341 27C48.341 15.2137 38.7863 5.659 27 5.659C15.2137 5.659 5.659 15.2137 5.659 27Z" fill="var(--fill-0, #FFCD4F)"/>
<path id="&#244;&#128;&#184;&#169;" d="M22.5576 39.2633C21.5408 39.2633 20.8871 38.6719 20.9078 37.7173L21.1257 26.2C21.1361 25.5878 21.0323 25.4321 20.6277 25.235C19.1232 24.519 18.3969 23.7512 18.511 21.5515L18.8223 15.5957C18.8534 15.0146 19.1958 14.6515 19.725 14.6515C20.2645 14.6515 20.5758 15.025 20.5654 15.6268L20.472 21.3544C20.4617 21.7694 20.6692 21.9977 21.0116 21.9977C21.354 21.9977 21.5615 21.7694 21.5719 21.3855L21.686 15.4089C21.6964 14.8486 22.0284 14.4647 22.5576 14.4647C23.0868 14.4647 23.4188 14.8486 23.4292 15.4089L23.5433 21.3855C23.5537 21.7798 23.7405 21.9977 24.1036 21.9977C24.4357 21.9977 24.6432 21.7694 24.6328 21.3544L24.5498 15.6268C24.5394 15.025 24.8507 14.6515 25.3799 14.6515C25.9194 14.6515 26.2411 15.0043 26.2826 15.5957L26.5835 21.5515C26.708 23.7512 25.9921 24.519 24.4772 25.235C24.0725 25.4321 23.9791 25.5878 23.9895 26.2L24.197 37.7173C24.2074 38.6615 23.5848 39.2633 22.5576 39.2633ZM30.8584 30.0702C30.8792 29.5825 30.7546 29.3646 30.3604 29.0948L30.0698 28.9081C29.3124 28.3893 29.0945 27.9327 29.0945 27.1234V26.4282C29.0945 22.5476 30.4226 17.5153 32.1035 15.191C32.4667 14.693 32.7572 14.4647 33.1722 14.4647C33.6807 14.4647 34.0127 14.8175 34.0127 15.3467V37.7277C34.0127 38.6719 33.4109 39.2633 32.3733 39.2633C31.3564 39.2633 30.7131 38.6719 30.7235 37.7069L30.8584 30.0702Z" fill="var(--fill-0, #FFCD4F)"/>
</g>
</svg>
