<svg preserveAspectRatio="none" width="100%" height="100%" overflow="visible" style="display: block;" viewBox="0 0 54.0001 54" fill="none" xmlns="http://www.w3.org/2000/svg">
<g id="Frame 2136139699">
<path id="Ellipse 203196394" opacity="0.3" d="M54 27C54 41.9117 41.9117 54 27 54C12.0884 54 4.26861e-05 41.9117 4.26861e-05 27C4.26861e-05 12.0883 12.0884 0 27 0C41.9117 0 54 12.0883 54 27ZM5.65905 27C5.65905 38.7863 15.2137 48.341 27 48.341C38.7863 48.341 48.341 38.7863 48.341 27C48.341 15.2137 38.7863 5.659 27 5.659C15.2137 5.659 5.65905 15.2137 5.65905 27Z" fill="var(--fill-0, #3FFF8F)"/>
<path id="Ellipse 203196393" d="M44.0182 9.98181C45.1635 8.83654 47.0347 8.8276 48.0491 10.0903C51.3202 14.162 53.354 19.114 53.87 24.3535C54.4823 30.57 52.9201 36.8065 49.4497 42.0004C45.9793 47.1942 40.8154 51.0241 34.8377 52.8374C28.8601 54.6507 22.4387 54.3352 16.6676 51.9448C10.8965 49.5543 6.13281 45.2367 3.18818 39.7277C0.243552 34.2187 -0.699809 27.8592 0.518835 21.7326C1.73748 15.606 5.04272 10.0915 9.8714 6.12874C13.9412 2.78876 18.8809 0.725217 24.0731 0.159075C25.6832 -0.0164881 27 1.31299 27 2.93264V2.93264C27 4.55229 25.6807 5.84437 24.0767 6.0684C20.2444 6.60362 16.6124 8.18416 13.5923 10.6627C9.81257 13.7646 7.22533 18.0812 6.27142 22.8768C5.31751 27.6725 6.05594 32.6506 8.3609 36.9629C10.6659 41.2751 14.3947 44.6548 18.9122 46.5259C23.4296 48.3971 28.4561 48.644 33.1351 47.2247C37.8142 45.8053 41.8564 42.8074 44.5729 38.7418C47.2895 34.6762 48.5123 29.7945 48.033 24.9284C47.65 21.0404 46.1994 17.3545 43.868 14.2662C42.8922 12.9736 42.873 11.1271 44.0182 9.98181V9.98181Z" fill="var(--fill-0, #3FFF8F)"/>
<path id="&#244;&#128;&#139;&#166;" d="M18.5997 28.9736C18.5997 28.6836 18.6963 28.415 18.9219 28.1572L29.4385 15.5996C30.3516 14.5146 31.7588 15.2344 31.2325 16.5771L27.8809 25.2891H34.3584C34.9063 25.2891 35.3145 25.665 35.3145 26.2021C35.3145 26.4922 35.2178 26.75 34.9922 27.0186L24.4756 39.5762C23.5625 40.6504 22.1553 39.9414 22.6817 38.5986L26.0332 29.8867H19.5557C19.0079 29.8867 18.5997 29.5107 18.5997 28.9736Z" fill="var(--fill-0, #3FFF8F)"/>
</g>
</svg>
