<svg preserveAspectRatio="none" width="100%" height="100%" overflow="visible" style="display: block;" viewBox="0 0 83.9424 58.2914" fill="none" xmlns="http://www.w3.org/2000/svg">
<path id="Vector 234256071" opacity="0.4" d="M21.6829 56.2464C18.4649 56.2464 3.02528 43.824 6.06976 39.4099C9.46826 34.4824 29.3828 33.9897 30.0595 41.3808C30.5713 46.9699 1.18268 41.8883 1.98747 49.439C2.75149 56.6073 16.3128 46.0704 17.4713 43.231C18.5795 40.5146 15.8879 38.4163 14.567 36.3859C10.8388 30.6549 21.2161 26.577 25.3919 26.7804C28.0695 26.9108 33.2196 32.3595 30.6872 35.0293C23.7961 42.2945 8.54968 32.3002 5.84188 39.9547C4.25749 44.4335 12.8588 45.9644 15.3646 46.3893C22.1496 47.5398 29.9711 42.2148 31.8385 35.599C33.0513 31.3022 31.9071 25.2332 30.4954 22.3233C26.4457 13.9756 8.38273 20.1882 5.27486 27.3104C2.54478 33.5669 13.5229 27.3462 15.0508 26.4576C16.6945 25.5018 17.322 21.5994 18.2956 16.4591C18.8045 13.7726 23.5341 8.25268 28.0053 4.04398C35.6878 -3.18734 46.3082 10.6239 43.676 17.9693C42.1313 22.2801 31.3565 22.6325 28.0553 19.9124C20.7889 13.9251 36.1266 11.766 38.5657 11.7565C48.1061 11.7193 14.8595 36.5201 16.7552 42.32C19.0034 49.1985 37.1279 57.1755 44.6926 56.2464C47.2161 55.9365 47.9839 48.7396 48.0728 44.351C48.3825 29.0623 30.3324 43.196 33.9714 48.0486C39.9144 55.9735 50.4896 37.9864 51.4625 37.002C55.8329 32.5799 56.0676 29.3056 56.1666 24.0978C56.2355 20.4755 49.9657 22.6209 48.3825 23.5227C46.3404 24.6859 46.754 28.9353 47.7819 30.6044C50.3667 34.8017 57.3852 32.379 61.3883 32.6795C63.9194 32.8696 63.8175 38.1108 63.784 39.8327C63.6027 49.1408 37.3704 42.8536 33.9714 40.4173C30.501 37.9298 59.7623 12.206 57.6789 5.2832C56.6991 2.02757 49.6504 1.0682 47.0899 2.86881C44.9711 4.35886 45.3181 8.59427 46.3204 10.5817C47.7927 13.5009 53.5852 14.1224 58.1728 15.8401C66.1519 18.8276 71.9669 33.228 72.359 41.0529C72.7497 48.8506 63.7515 48.7844 58.748 48.0486C57.7515 47.902 59.5002 43.819 63.5478 35.591C67.8373 26.871 69.1099 20.0503 70.8292 16.9537C73.9526 12.6624 79.1529 10.6986 81.9712 6.72799" stroke="var(--stroke-0, white)" stroke-width="3.94195" stroke-linecap="round" stroke-linejoin="round"/>
</svg>
