<svg preserveAspectRatio="none" width="100%" height="100%" overflow="visible" style="display: block;" viewBox="0 0 84.4656 59.8874" fill="none" xmlns="http://www.w3.org/2000/svg">
<path id="Vector 234256073" opacity="0.4" d="M9.29102 13.262C16.1548 13.262 20.1734 25.663 16.8815 31.1417C13.0935 37.4459 -2.10739 38.8955 3.0574 27.9824C7.82831 17.9016 37.7382 26.6118 31.0857 11.9473C28.2509 5.69863 16.1037 15.275 16.0864 19.4371C16.0521 27.6874 22.9618 35.3688 22.2207 43.8207C21.8118 48.4841 -8.20079 49.3075 17.6774 37.1246C24.6122 33.8599 36.1504 37.9255 34.0933 46.9743C31.3847 58.8888 2.63512 60.7735 15.7647 48.2235C24.01 40.3422 38.6579 42.5207 47.3582 35.3505C54.9366 29.105 36.5882 21.1041 31.4909 23.9188C13.1734 34.0336 50.3706 48.0911 39.7536 55.1801C18.6064 69.3 43.6006 23.8416 46.6219 20.0202C49.4306 16.4677 43.6672 5.79221 38.0877 8.57653C22.0895 16.5602 66.0233 29.5762 65.6395 40.7141C65.4222 47.0206 47.9929 53.0052 44.6687 47.6466C37.7004 36.4136 76.2808 38.6576 64.0625 52.7756C61.7293 55.4716 50.4885 57.3523 47.9485 54.2764C33.5217 36.8055 74.3184 29.3396 81.2762 26.547C86.3034 24.5292 74.2955 7.7066 66.4184 16.0294C57.9561 24.9707 71.5813 41.5621 59.4812 40.9249C28.1191 39.2733 69.2636 5.4245 76.5208 1.99757" stroke="var(--stroke-0, white)" stroke-width="3.9942" stroke-linecap="round" stroke-linejoin="round"/>
</svg>
