<svg preserveAspectRatio="none" width="100%" height="100%" overflow="visible" style="display: block;" viewBox="0 0 84.7817 50.8451" fill="none" xmlns="http://www.w3.org/2000/svg">
<path id="Vector 234256072" opacity="0.4" d="M15.1081 34.7538C10.4737 34.7538 6.05506 37.4228 3.86627 41.4508C0.323565 47.9705 17.2902 48.7952 16.3076 42.0433C15.8882 39.162 10.0921 37.5304 7.49192 36.247C5.40524 35.2172 4.01211 33.7376 3.35254 32.7425C-2.59063 23.776 15.0057 17.1417 21.3809 20.0412C22.4535 20.529 23.4958 22.4849 22.9077 23.6415C21.7167 25.9841 15.1765 27.6694 13.2779 25.4022C11.0226 22.7089 13.145 16.3988 14.9804 13.0294C17.8237 7.80975 27.7803 6.80504 32.9352 8.1107C36.2681 8.95489 38.1598 14.5739 36.2439 17.3683C34.8852 19.3499 30.8629 20.631 28.2715 22.5431C23.9837 25.7068 20.0441 38.2188 27.2484 40.3454C30.9125 41.4271 36.9274 37.1651 35.8174 33.1202C34.5545 28.5184 24.4965 35.2119 23.0228 36.3713C20.112 38.6616 20.778 46.0968 24.2106 47.676C29.5333 50.1247 41.412 47.5815 45.4996 46.2715C59.8499 41.6723 43.6404 30.6399 43.8758 23.8475C44.0127 19.9001 53.9083 19.6707 56.515 20.9734C64.8121 25.1196 47.7559 36.7719 43.4436 31.7036C40.4527 28.1884 41.5659 16.055 45.1452 12.8626C49.0621 9.369 57.9649 7.73537 59.5866 6.53428C65.1678 2.40047 54.2529 0.987411 50.9984 3.15289C49.4015 4.21541 49.8004 8.80984 50.4091 11.8663C50.9122 14.3923 53.6371 15.2062 56.5995 16.3813C62.1897 18.5986 64.5475 19.5502 66.5341 21.5404C71.2726 26.2874 72.3623 38.3042 68.0966 43.3064C65.36 46.5155 57.7185 43.9016 56.9689 39.8415C57.4392 37.8051 60.6217 34.403 73.4609 26.0609C76.8914 23.8201 79.5166 21.9001 82.6366 19.7416" stroke="var(--stroke-0, white)" stroke-width="4.28992" stroke-linecap="round" stroke-linejoin="round"/>
</svg>
