<svg width="21.7612" height="21.683" viewBox="0 0 21.7612 21.683" fill="none" xmlns="http://www.w3.org/2000/svg">
  <path d="M21.7612 7.25373C21.7612 11.2599 16.8898 14.5075 10.8806 14.5075C4.87141 14.5075 0 11.2599 0 7.25373C0 3.24761 4.87141 0 10.8806 0C16.8898 0 21.7612 3.24761 21.7612 7.25373Z" fill="#FFB107"/>
  <path d="M4.59379 16.1718C4.59379 15.7446 5.02552 15.451 5.43103 15.5854C6.65089 15.9896 7.96801 16.2583 9.3414 16.3738C9.6618 16.4007 9.91367 16.6649 9.91367 16.9864V21.0893C9.91367 21.4371 9.62066 21.7142 9.27457 21.6801C7.69401 21.5242 6.22466 21.1419 4.94229 20.5839C4.72796 20.4906 4.59379 20.2767 4.59379 20.0429V16.1718Z" fill="#FFB107"/>
  <path d="M17.1674 20.0429C17.1674 20.2767 17.0332 20.4906 16.8189 20.5839C15.5365 21.1419 14.0672 21.5242 12.4866 21.6801C12.1405 21.7142 11.8475 21.4371 11.8475 21.0893V16.9864C11.8475 16.6649 12.0994 16.4007 12.4198 16.3738C13.7932 16.2583 15.1103 15.9896 16.3302 15.5854C16.7357 15.451 17.1674 15.7446 17.1674 16.1718V20.0429Z" fill="#FFB107"/>
  <path d="M0 13.7647C0 13.2055 0.7261 12.9184 1.15523 13.2769C1.46005 13.5317 1.78042 13.7706 2.11331 13.9925C2.25022 14.0838 2.39024 14.1721 2.53263 14.2584C2.61755 14.3099 2.65995 14.408 2.65994 14.5073V18.0288C2.65994 18.5302 2.09189 18.802 1.74238 18.4424C0.640615 17.3091 0 15.9587 0 14.5073V13.7647Z" fill="#FFB107"/>
  <path d="M21.7612 14.5073C21.7612 15.9587 21.1206 17.3091 20.0188 18.4424C19.6693 18.802 19.1013 18.5302 19.1013 18.0288V14.5073C19.1012 14.4079 19.1425 14.3099 19.2275 14.2585C19.3703 14.1721 19.5107 14.084 19.6479 13.9925C19.9808 13.7706 20.3011 13.5317 20.606 13.2769C21.0351 12.9184 21.7612 13.2055 21.7612 13.7647V14.5073Z" fill="#FFB107"/>
</svg>
